<svg width="20" height="20" viewBox="0 0 20 20" fill="none" xmlns="http://www.w3.org/2000/svg">
<path d="M19.3917 13.8022L11.6666 6.07781V2.65228C11.6666 2.1115 11.5466 1.56655 11.3099 1.05823L11.1341 0.724939C10.9266 0.277477 10.4925 0 10 0C9.50756 0 9.07341 0.277477 8.87511 0.705761L8.68095 1.07655C8.45346 1.56651 8.33348 2.11064 8.33348 2.65224V6.07777L0.610803 13.8005C0.217516 14.1938 0.000854492 14.7163 0.000854492 15.2729V16.2495C0.000854492 16.402 0.0841678 16.542 0.217516 16.6145C0.350825 16.6878 0.514171 16.6828 0.64248 16.5995L8.49514 11.5674C8.57263 12.8281 8.67763 13.8805 8.80593 15.1613L8.93842 16.4737L6.02117 18.401C5.90368 18.4793 5.83368 18.6093 5.83368 18.7493V19.5825C5.83368 19.7083 5.89118 19.8283 5.98949 19.9075C6.08866 19.9875 6.21779 20.0175 6.34028 19.99L9.99998 19.1759L13.6597 19.99C13.6897 19.9967 13.7197 20 13.7497 20C13.8438 20 13.9355 19.9683 14.0105 19.9083C14.1088 19.8283 14.1663 19.7083 14.1663 19.5825V18.7493C14.1663 18.6093 14.0963 18.4785 13.9788 18.4018L11.0615 16.477L11.194 15.1604C11.3223 13.8813 11.4273 12.8298 11.5048 11.569L19.3575 16.5994C19.4866 16.6827 19.6491 16.6869 19.7816 16.6144C19.9158 16.5419 19.9991 16.4019 19.9991 16.2495V15.2729C19.9992 14.7163 19.7834 14.1938 19.3917 13.8022Z" fill="#6A5EE8"/>
</svg>
