<svg width="64" height="30" viewBox="0 0 64 30" fill="none" xmlns="http://www.w3.org/2000/svg">
<path d="M0 0H44C55.0457 0 64 8.95431 64 20V30H30C13.4315 30 0 16.5685 0 0Z" fill="#432FB3"/>
<g clip-path="url(#clip0)">
<path d="M40.953 12.9047C40.8351 12.5402 40.5118 12.2814 40.1294 12.2469L34.9341 11.7751L32.8797 6.96672C32.7282 6.61433 32.3833 6.38622 32 6.38622C31.6167 6.38622 31.2717 6.61433 31.1202 6.96755L29.0659 11.7751L23.8697 12.2469C23.488 12.2822 23.1655 12.5402 23.047 12.9047C22.9285 13.2692 23.0379 13.669 23.3267 13.921L27.2538 17.365L26.0958 22.4659C26.011 22.841 26.1566 23.2287 26.4678 23.4536C26.6351 23.5745 26.8308 23.636 27.0281 23.636C27.1983 23.636 27.3671 23.5901 27.5185 23.4995L32 20.8211L36.4798 23.4995C36.8076 23.6967 37.2208 23.6787 37.5313 23.4536C37.8426 23.228 37.9881 22.8402 37.9033 22.4659L36.7454 17.365L40.6724 13.9217C40.9612 13.669 41.0715 13.2699 40.953 12.9047Z" fill="white"/>
</g>
<defs>
<clipPath id="clip0">
<rect width="18" height="18" fill="white" transform="translate(23 6)"/>
</clipPath>
</defs>
</svg>
