<svg width="15" height="20" viewBox="0 0 15 20" fill="none" xmlns="http://www.w3.org/2000/svg">
<g opacity="0.8">
<path d="M7.38809 0C3.31421 0 0 3.31421 0 7.38809C0 8.72925 0.601477 10.1717 0.626684 10.2325C0.820947 10.6936 1.20426 11.4098 1.48066 11.8296L6.54628 19.505C6.75358 19.8196 7.06041 20 7.38809 20C7.71577 20 8.0226 19.8196 8.2299 19.5054L13.296 11.8296C13.5728 11.4098 13.9557 10.6936 14.1499 10.2325C14.1751 10.1721 14.7762 8.72968 14.7762 7.38809C14.7762 3.31421 11.462 0 7.38809 0ZM13.3485 9.89526C13.1751 10.3086 12.8183 10.9748 12.5702 11.3512L7.50413 19.0269C7.40417 19.1786 7.37244 19.1786 7.27249 19.0269L2.20643 11.3512C1.95828 10.9748 1.60148 10.3081 1.42807 9.89483C1.42069 9.87701 0.869187 8.54933 0.869187 7.38809C0.869187 3.79357 3.79357 0.869187 7.38809 0.869187C10.9826 0.869187 13.907 3.79357 13.907 7.38809C13.907 8.55106 13.3542 9.88223 13.3485 9.89526Z" fill="white"/>
<path d="M14.0001 5.50005C16.0001 8.50005 9.66672 16.5 7.50006 19.5L3 13C-2.6 5.8 2.6667 1.6667 6.00006 0.500047C10.8 -0.699943 13.3334 3.33338 14.0001 5.50005Z" fill="white"/>
<circle cx="7.5" cy="7.5" r="3.5" fill="#858F91"/>
<path d="M7.38815 3.47705C5.23126 3.47705 3.47681 5.23194 3.47681 7.38839C3.47681 9.54485 5.23126 11.2997 7.38815 11.2997C9.54504 11.2997 11.2995 9.54485 11.2995 7.38839C11.2995 5.23194 9.54504 3.47705 7.38815 3.47705ZM7.38815 10.4305C5.71105 10.4305 4.34599 9.06592 4.34599 7.38839C4.34599 5.71086 5.71105 4.34624 7.38815 4.34624C9.06525 4.34624 10.4303 5.71086 10.4303 7.38839C10.4303 9.06592 9.06525 10.4305 7.38815 10.4305Z" fill="white"/>
</g>
</svg>
