<svg width="19" height="20" viewBox="0 0 19 20" fill="none" xmlns="http://www.w3.org/2000/svg">
<path d="M7.20106 19V14.7619H12.5382V19C12.5382 19.5523 12.9859 20 13.5382 20H17.8457C18.398 20 18.8457 19.5523 18.8457 19V8.93466C18.8457 8.39773 18.6298 7.88336 18.2466 7.50726L12.594 1.95955C12.5568 1.92308 12.5169 1.88957 12.4745 1.85932L11.0315 0.829361C10.3364 0.333171 9.40285 0.33317 8.70769 0.829361L7.26472 1.85932C7.22235 1.88957 7.18239 1.92308 7.14523 1.95955L1.49264 7.50726C1.10944 7.88336 0.893555 8.39773 0.893555 8.93466V19C0.893555 19.5523 1.34127 20 1.89355 20H6.20106C6.75334 20 7.20106 19.5523 7.20106 19Z" fill="#6A5EE8"/>
</svg>
