<svg width="21" height="20" viewBox="0 0 21 20" fill="none" xmlns="http://www.w3.org/2000/svg">
<path d="M9.67756 20C11.1828 20 12.4419 18.9241 12.7311 17.5H6.62402C6.91332 18.9241 8.17248 20 9.67756 20Z" fill="#D5D5E1"/>
<path d="M15.5054 9.99924C15.5021 9.99924 15.4987 10 15.4954 10C12.2881 10 9.6776 7.38327 9.6776 4.16672C9.6776 3.28247 9.88046 2.44659 10.2337 1.69495C10.0508 1.67755 9.8654 1.66672 9.6776 1.66672C6.46458 1.66672 3.85983 4.27826 3.85983 7.5V9.8233C3.85983 11.4725 3.13925 13.0292 1.87508 14.1008C1.45368 14.4617 1.26665 15.0366 1.41792 15.5975C1.59415 16.25 2.23742 16.6667 2.91235 16.6667H16.4387C17.1468 16.6667 17.8143 16.2067 17.958 15.5109C18.0694 14.9725 17.8782 14.435 17.4619 14.0842C16.2534 13.0684 15.5544 11.5758 15.5054 9.99924Z" fill="#D5D5E1"/>
<path d="M19.651 4.16672C19.651 6.4679 17.7905 8.33328 15.4953 8.33328C13.2003 8.33328 11.3398 6.4679 11.3398 4.16672C11.3398 1.86554 13.2003 0 15.4953 0C17.7905 0 19.651 1.86554 19.651 4.16672Z" fill="#D5D5E1"/>
</svg>
