<svg width="20" height="20" viewBox="0 0 20 20" fill="none" xmlns="http://www.w3.org/2000/svg">
<path d="M18.5112 17.3332L14.0682 12.8902C15.1699 11.5294 15.8332 9.80021 15.8332 7.9169C15.8332 3.55195 12.2815 0.000305176 7.91656 0.000305176C3.55161 0.000305176 0 3.55191 0 7.91687C0 12.2818 3.55165 15.8335 7.9166 15.8335C9.7999 15.8335 11.5291 15.1702 12.8899 14.0685L17.3329 18.5115C17.4954 18.674 17.7087 18.7557 17.9221 18.7557C18.1355 18.7557 18.3488 18.674 18.5113 18.5115C18.8371 18.1857 18.8371 17.659 18.5112 17.3332ZM7.9166 14.1668C4.46996 14.1668 1.66666 11.3635 1.66666 7.91687C1.66666 4.47022 4.46996 1.66693 7.9166 1.66693C11.3632 1.66693 14.1665 4.47022 14.1665 7.91687C14.1665 11.3635 11.3632 14.1668 7.9166 14.1668Z" fill="#282948"/>
</svg>
