<svg width="21" height="20" viewBox="0 0 21 20" fill="none" xmlns="http://www.w3.org/2000/svg">
<g clip-path="url(#clip0)">
<path d="M19.081 7.82833L17.5185 7.62917C17.3897 7.23167 17.2309 6.84833 17.0456 6.48417L18.0105 5.23833C18.4011 4.73417 18.3554 4.0225 17.9091 3.58917L16.6001 2.27667C16.1638 1.825 15.454 1.78 14.9503 2.17083L13.7095 3.13833C13.3463 2.9525 12.964 2.79333 12.5667 2.66417L12.3681 1.1C12.2933 0.4725 11.7622 0 11.133 0H9.27131C8.64216 0 8.11107 0.4725 8.03627 1.0975L7.83764 2.66417C7.44036 2.79333 7.05805 2.95167 6.69485 3.13833L5.45316 2.17083C4.95117 1.78 4.24139 1.825 3.80838 2.2725L2.49937 3.58417C2.04891 4.0225 2.00319 4.73417 2.39382 5.23917L3.35875 6.48417C3.17258 6.84833 3.01466 7.23167 2.88584 7.62917L1.32583 7.82833C0.700003 7.90333 0.22876 8.43583 0.22876 9.06667V10.9333C0.22876 11.5642 0.700003 12.0967 1.32334 12.1717L2.88584 12.3708C3.01466 12.7683 3.17341 13.1517 3.35875 13.5158L2.39382 14.7617C2.00319 15.2658 2.04891 15.9775 2.49522 16.4108L3.80422 17.7233C4.24139 18.1742 4.95034 18.2192 5.45399 17.8283L6.69568 16.8608C7.05888 17.0475 7.44119 17.2067 7.83764 17.335L8.03627 18.8983C8.11107 19.5275 8.64216 20 9.27131 20H11.133C11.7622 20 12.2933 19.5275 12.3681 18.9025L12.5667 17.3358C12.9631 17.2067 13.3454 17.0475 13.7086 16.8617L14.9512 17.8292C15.454 18.2208 16.1638 18.175 16.5959 17.7275L17.905 16.415C18.3554 15.9767 18.4011 15.2658 18.0105 14.7608L17.0456 13.5158C17.2318 13.1517 17.3905 12.7683 17.5185 12.3708L19.0777 12.1717C19.7035 12.0967 20.1747 11.5642 20.1747 10.9333V9.06667C20.1756 8.43583 19.7043 7.90333 19.081 7.82833ZM10.2022 14.1667C7.91077 14.1667 6.04658 12.2975 6.04658 10C6.04658 7.7025 7.91077 5.83333 10.2022 5.83333C12.4936 5.83333 14.3577 7.7025 14.3577 10C14.3577 12.2975 12.4936 14.1667 10.2022 14.1667Z" fill="#D5D5E1"/>
</g>
<defs>
<clipPath id="clip0">
<rect width="19.9468" height="20" fill="white" transform="translate(0.22876)"/>
</clipPath>
</defs>
</svg>
