<svg width="20" height="20" viewBox="0 0 20 20" fill="none" xmlns="http://www.w3.org/2000/svg">
<g clip-path="url(#clip0)">
<path d="M19.9477 8.2428C19.8168 7.83782 19.4576 7.55019 19.0327 7.51189L13.2601 6.98773L10.9775 1.64504C10.8092 1.25349 10.4259 1.00003 9.99998 1.00003C9.5741 1.00003 9.19079 1.25349 9.02248 1.64595L6.73986 6.98773L0.966392 7.51189C0.542187 7.5511 0.183901 7.83782 0.0522144 8.2428C-0.0794723 8.64778 0.0421433 9.09197 0.363044 9.37198L4.72641 13.1987L3.43975 18.8664C3.3456 19.2831 3.50735 19.7139 3.85312 19.9638C4.03898 20.0981 4.25642 20.1665 4.4757 20.1665C4.66476 20.1665 4.85229 20.1155 5.0206 20.0148L9.99998 17.0388L14.9775 20.0148C15.3418 20.2339 15.8009 20.2139 16.1459 19.9638C16.4918 19.7131 16.6534 19.2822 16.5593 18.8664L15.2726 13.1987L19.636 9.37274C19.9569 9.09197 20.0794 8.64854 19.9477 8.2428Z" fill="#6A5EE8"/>
</g>
<defs>
<clipPath id="clip0">
<rect width="20" height="20" fill="white"/>
</clipPath>
</defs>
</svg>
